<svg width="100%" height="100%" viewBox="0 0 440 176" version="1.1" xmlns="http://www.w3.org/2000/svg" xmlns:xlink="http://www.w3.org/1999/xlink" xml:space="preserve" xmlns:serif="http://www.serif.com/" style="fill-rule:evenodd;clip-rule:evenodd;stroke-linejoin:round;stroke-miterlimit:2;">
    <g transform="matrix(1,0,0,1,-2574,-792)">
        <g id="Unprotected-primary-color-logogram-on-transparent-background" serif:id="Unprotected primary color logogram on transparent background" transform="matrix(1.12719,0,0,0.885774,2612.5,797.543)">
            <rect x="-34.159" y="-6.258" width="390.352" height="198.696" style="fill:none;"/>
            <clipPath id="_clip1">
                <rect x="-34.159" y="-6.258" width="390.352" height="198.696"/>
            </clipPath>
            <g clip-path="url(#_clip1)">
                <g transform="matrix(3.69565,0,0,4.16217,-240.2,-272.956)">
                    <g transform="matrix(0.105625,-6.62507e-18,5.86335e-18,0.119347,45.1899,52.1434)">
                        <path d="M100,500L300,300L100,100L167.274,100C252.258,100 333.761,133.757 393.857,193.846C397.723,197.712 400,199.988 400,199.988L500,99.976L699.976,100L800,200.024L900,100L1100,100L900,300L1100,500L1032.74,500C947.747,500 866.238,466.238 806.141,406.141C802.276,402.276 800,400 800,400L700,500L500,500L700,300L600,200.024L300,500L100,500Z" style="fill:rgb(0,170,255);"/>
                    </g>
                    <g transform="matrix(0.105625,0,0,0.119347,45.1899,40.2116)">
                        <path d="M500,599.976L900,199.976L700,199.953L300,599.976L500,599.976Z" style="fill:rgb(14,17,18);fill-opacity:0.2;"/>
                    </g>
                </g>
            </g>
        </g>
    </g>
</svg>
