<svg width="100%" height="100%" viewBox="0 0 797 360" version="1.1" style="fill-rule:evenodd;clip-rule:evenodd;stroke-linejoin:round;stroke-miterlimit:2;max-height:14rem;">
    <g transform="matrix(1,0,0,1,-3.97904e-13,-80)">
        <g id="Unprotected-white-logo-on-primary-color-background" serif:id="Unprotected white logo on primary color background" transform="matrix(2.04175,0,0,1.81181,69.7442,91.3386)">
            <rect x="-34.159" y="-6.258" width="390.352" height="198.696" style="fill:none;"/>
            <clipPath id="_clip1">
                <rect x="-34.159" y="-6.258" width="390.352" height="198.696"/>
            </clipPath>
            <g clip-path="url(#_clip1)">
                <g transform="matrix(2.04026,0,0,2.03484,-167.499,-85.8526)">
                    <g transform="matrix(0.144034,0,0,0.162745,74.5967,6.57805)">
                        <g transform="matrix(1,-5.55112e-17,5.55112e-17,1,-7.97153e-14,99.9764)">
                            <path d="M100,500L300,300L100,100L202.668,100C264.989,100 324.758,124.755 368.828,168.82C386.187,186.177 400,199.988 400,199.988L500,99.976L699.976,100L800,200.024L900,100L1100,100L900,300L1100,500L997.34,500C935.014,500 875.241,475.241 831.17,431.17C813.812,413.812 800,400 800,400L700,500L500,500L700,300L600,200.024L300,500L100,500Z" style="fill:rgb(237,240,241);"/>
                        </g>
                        <path d="M500,599.976L900,199.976L700,199.953L300,599.976L500,599.976Z" style="fill:rgb(14,17,18);fill-opacity:0.2;"/>
                    </g>
                    <g transform="matrix(0.285648,0,0,0.322757,45.324,-24.991)">
                        <g transform="matrix(96,0,0,96,69.6431,501.153)">
                            <path d="M0.338,-0.241L0.338,0L0.287,0L0.287,-0.241L0.005,-0.7L0.061,-0.7L0.314,-0.288L0.567,-0.7L0.62,-0.7L0.338,-0.241Z" style="fill:rgb(241,237,238);fill-rule:nonzero;"/>
                        </g>
                        <g transform="matrix(96,0,0,96,168.043,501.153)">
                            <path d="M0.373,-0.7C0.461,-0.7 0.53,-0.679 0.58,-0.637C0.63,-0.596 0.655,-0.538 0.655,-0.464C0.655,-0.391 0.63,-0.333 0.58,-0.292C0.53,-0.25 0.461,-0.229 0.373,-0.229L0.173,-0.229L0.173,0L0.122,0L0.122,-0.7L0.373,-0.7ZM0.373,-0.275C0.448,-0.275 0.505,-0.291 0.544,-0.324C0.583,-0.357 0.603,-0.403 0.603,-0.464C0.603,-0.525 0.583,-0.572 0.544,-0.605C0.505,-0.637 0.448,-0.654 0.373,-0.654L0.173,-0.654L0.173,-0.275L0.373,-0.275Z" style="fill:rgb(241,237,238);fill-rule:nonzero;"/>
                        </g>
                        <g transform="matrix(96,0,0,96,275.083,501.153)">
                            <path d="M0.605,-0.046L0.605,0L0.122,0L0.122,-0.7L0.59,-0.7L0.59,-0.654L0.173,-0.654L0.173,-0.378L0.546,-0.378L0.546,-0.333L0.173,-0.333L0.173,-0.046L0.605,-0.046Z" style="fill:rgb(241,237,238);fill-rule:nonzero;"/>
                        </g>
                        <g transform="matrix(96,0,0,96,377.707,501.153)">
                            <path d="M0.608,0L0.441,-0.234C0.416,-0.231 0.394,-0.229 0.373,-0.229L0.173,-0.229L0.173,0L0.122,0L0.122,-0.7L0.373,-0.7C0.461,-0.7 0.53,-0.679 0.58,-0.637C0.63,-0.596 0.655,-0.538 0.655,-0.464C0.655,-0.409 0.641,-0.362 0.613,-0.325C0.584,-0.287 0.544,-0.26 0.491,-0.245L0.666,0L0.608,0ZM0.373,-0.274C0.448,-0.274 0.505,-0.291 0.544,-0.324C0.583,-0.357 0.603,-0.403 0.603,-0.464C0.603,-0.525 0.583,-0.572 0.544,-0.605C0.505,-0.637 0.448,-0.654 0.373,-0.654L0.173,-0.654L0.173,-0.274L0.373,-0.274Z" style="fill:rgb(241,237,238);fill-rule:nonzero;"/>
                        </g>
                        <g transform="matrix(96,0,0,96,485.227,501.153)">
                            <path d="M0.256,-0.654L0.004,-0.654L0.004,-0.7L0.559,-0.7L0.559,-0.654L0.307,-0.654L0.307,0L0.256,0L0.256,-0.654Z" style="fill:rgb(241,237,238);fill-rule:nonzero;"/>
                        </g>
                        <g transform="matrix(96,0,0,96,577.675,501.153)">
                            <path d="M0.605,-0.046L0.605,0L0.122,0L0.122,-0.7L0.59,-0.7L0.59,-0.654L0.173,-0.654L0.173,-0.378L0.546,-0.378L0.546,-0.333L0.173,-0.333L0.173,-0.046L0.605,-0.046Z" style="fill:rgb(241,237,238);fill-rule:nonzero;"/>
                        </g>
                        <g transform="matrix(96,0,0,96,680.299,501.153)">
                            <path d="M0.561,0L0.32,-0.324L0.08,0L0.02,0L0.289,-0.361L0.039,-0.7L0.099,-0.7L0.322,-0.399L0.545,-0.7L0.602,-0.7L0.352,-0.362L0.621,0L0.561,0Z" style="fill:rgb(241,237,238);fill-rule:nonzero;"/>
                        </g>
                    </g>
                </g>
            </g>
        </g>
    </g>
</svg>
